# xmcd CD database file
#
# Track frame offsets:
#	150
#	18605
#	37158
#
# Disc length: 738 seconds
#
# Revision: 0
# Processed by: cddbd v1.5.1PL0 Copyright (c) Steve Scherf et al.
# Submitted via: CDex 1.51
#
DISCID=2202e003
DTITLE=SUPER!? TENSIONS - ANNIVERSARY
DYEAR=1997
DGENRE=J-POP
TTITLE0=ANNIVERSARY
TTITLE1=オレンジ
TTITLE2=ANNIVERSARY(Instrumental)
EXTD=YEAR: 1997
EXTT0=
EXTT1=
EXTT2=
PLAYORDER=
